<svg xmlns="http://www.w3.org/2000/svg" version="1.1" xmlns:xlink="http://www.w3.org/1999/xlink" xmlns:svgjs="http://svgjs.dev/svgjs" width="1000" height="1000" viewBox="0 0 1000 1000"><g transform="matrix(1,0,0,1,-0.14221556886212738,-0.14221556886229791)"><svg viewBox="0 0 334 334" data-background-color="#ffffff" preserveAspectRatio="xMidYMid meet" height="1000" width="1000" xmlns="http://www.w3.org/2000/svg" xmlns:xlink="http://www.w3.org/1999/xlink"><g id="tight-bounds" transform="matrix(1,0,0,1,0.04749999999998522,0.04750000000001364)"><svg viewBox="0 0 333.90454557049503 333.90454557049503" height="333.90454557049503" width="333.90454557049503"><g><svg></svg></g><g><svg viewBox="0 0 333.90454557049503 333.90454557049503" height="333.90454557049503" width="333.90454557049503"><g><path d="M0 166.952c0-92.205 74.747-166.952 166.952-166.952 92.205 0 166.952 74.747 166.953 166.952 0 92.205-74.747 166.952-166.953 166.953-92.205 0-166.952-74.747-166.952-166.953zM166.952 316.63c82.665 0 149.677-67.013 149.678-149.678 0-82.665-67.013-149.677-149.678-149.677-82.665 0-149.677 67.013-149.677 149.677 0 82.665 67.013 149.677 149.677 149.678z" data-fill-palette-color="tertiary" fill="#a437db" stroke="transparent"></path><ellipse rx="160.27418187383762" ry="160.27418187383762" cx="166.95227278524752" cy="166.95227278524752" fill="#a437db" stroke="transparent" stroke-width="0" fill-opacity="1" data-fill-palette-color="tertiary"></ellipse></g><g transform="matrix(1,0,0,1,72.75327762633844,71.17305217166896)"><svg viewBox="0 0 188.39799031781814 191.55844122715712" height="191.55844122715712" width="188.39799031781814"><g><svg viewBox="0 0 188.39799031781814 191.55844122715712" height="191.55844122715712" width="188.39799031781814"><g><svg viewBox="0 0 188.39799031781814 191.55844122715712" height="191.55844122715712" width="188.39799031781814"><g><svg viewBox="0 0 188.39799031781814 191.55844122715712" height="191.55844122715712" width="188.39799031781814"><g id="textblocktransform"><svg viewBox="0 0 188.39799031781814 191.55844122715712" height="191.55844122715712" width="188.39799031781814" id="textblock"><g><svg viewBox="0 0 188.39799031781814 191.55844122715712" height="191.55844122715712" width="188.39799031781814"><g transform="matrix(1,0,0,1,0,0)"><svg width="188.39799031781814" viewBox="-1.440000057220459 -25.389999389648438 26.200000762939453 26.639999389648438" height="191.55844122715712" data-palette-color="#ffffff"><path d="M24.76-24.66L13.65 1.25 11.94 0.76 4.1-19.8Q3.78-20.73 3.44-21.39 3.1-22.05 2.54-22.44 1.98-22.83 1.09-22.92 0.2-23.02-1.2-22.85L-1.2-22.85-1.44-23.34Q2.66-25.39 5.91-25.39L5.91-25.39 12.35-8.15Q13.18-5.35 13.5-3.66L13.5-3.66 13.89-3.66Q13.99-3.98 14.26-4.87 14.53-5.76 14.75-6.38 14.97-7.01 15.21-7.59L15.21-7.59 21.61-22.34Q22.07-23.46 20.24-23.78L20.24-23.78Q19.24-23.93 17.7-23.8L17.7-23.8 17.55-24.39Q20.65-25.05 24.44-25.15L24.44-25.15 24.76-24.66Z" opacity="1" transform="matrix(1,0,0,1,0,0)" fill="#ffffff" class="wordmark-text-0" data-fill-palette-color="quaternary" id="text-0"></path></svg></g></svg></g></svg></g></svg></g><g></g></svg></g></svg></g></svg></g></svg></g><defs></defs></svg><rect width="333.90454557049503" height="333.90454557049503" fill="none" stroke="none" visibility="hidden"></rect></g></svg></g></svg>